<?xml version="1.0" encoding="UTF-8"?>
<svg xmlns="http://www.w3.org/2000/svg" version="1.1" xmlns:xlink="http://www.w3.org/1999/xlink" viewBox="0 0 527.36 221.63">
  <defs>
    <style>
      .cls-1 {
        letter-spacing: .37em;
      }

      .cls-2 {
        fill: url(#radial-gradient);
      }

      .cls-3 {
        font-size: 39.61px;
        stroke: #000;
        stroke-miterlimit: 10;
      }

      .cls-3, .cls-4 {
        font-family: SansSerifCollection, 'Sans Serif Collection';
      }

      .cls-5 {
        letter-spacing: .55em;
      }

      .cls-6 {
        letter-spacing: .36em;
      }

      .cls-7 {
        letter-spacing: .5em;
      }

      .cls-8 {
        letter-spacing: .53em;
      }

      .cls-9 {
        letter-spacing: .3em;
      }

      .cls-10, .cls-4 {
        fill: #d4af5a;
      }

      .cls-11 {
        letter-spacing: .51em;
      }

      .cls-12 {
        letter-spacing: .84em;
      }

      .cls-13 {
        letter-spacing: .53em;
      }

      .cls-14 {
        letter-spacing: .48em;
      }

      .cls-4 {
        font-size: 23.3px;
      }

      .cls-15 {
        fill: url(#linear-gradient);
      }

      .cls-16 {
        letter-spacing: .33em;
      }

      .cls-17 {
        letter-spacing: .55em;
      }
    </style>
    <linearGradient id="linear-gradient" x1="76.13" y1="91.66" x2="76.16" y2="91.66" gradientUnits="userSpaceOnUse">
      <stop offset="0" stop-color="#fff"/>
      <stop offset="1" stop-color="#7f9400"/>
    </linearGradient>
    <radialGradient id="radial-gradient" cx="276.28" cy="54.52" fx="191.8" fy="127.32" r="116.18" gradientTransform="translate(351.32 324.13) rotate(-114.73) scale(1 .82)" gradientUnits="userSpaceOnUse">
      <stop offset=".14" stop-color="#d4af5a"/>
      <stop offset=".6" stop-color="#e3b962"/>
      <stop offset=".84" stop-color="#eed27f"/>
    </radialGradient>
  </defs>
  <!-- Generator: Adobe Illustrator 28.6.0, SVG Export Plug-In . SVG Version: 1.2.0 Build 709)  -->
  <g>
    <g id="Layer_1">
      <g>
        <text class="cls-3" transform="translate(.5 153.2) scale(1.27 .9)"><tspan class="cls-9" x="0" y="0">CA</tspan><tspan class="cls-1" x="74.11" y="0">LL</tspan><tspan class="cls-7" x="144.61" y="0"> </tspan><tspan class="cls-12" x="169.72" y="0">&amp;</tspan><tspan class="cls-16" x="231.99" y="0">C</tspan><tspan class="cls-1" x="270.01" y="0">LO</tspan><tspan class="cls-6" x="350.7" y="0">SE</tspan></text>
        <g>
          <rect class="cls-10" x="432.3" y="175.28" width="84.16" height="1.34" rx=".29" ry=".29"/>
          <rect class="cls-10" x="2.61" y="175.19" width="84.16" height="1.34" rx=".29" ry=".29"/>
          <text class="cls-4" transform="translate(101.03 184.82) scale(1.27 .9)"><tspan class="cls-17" x="0" y="0">PRO</tspan><tspan class="cls-11" x="85.09" y="0">P</tspan><tspan class="cls-13" x="111.11" y="0">ER</tspan><tspan class="cls-14" x="163.26" y="0">T</tspan><tspan class="cls-8" x="187.33" y="0">IE</tspan><tspan class="cls-5" x="232.88" y="0">S</tspan></text>
        </g>
        <path class="cls-15" d="M76.13,91.67s.01,0,.01,0c.03-.03.01-.02-.01,0Z"/>
        <path class="cls-2" d="M360.89,82.78c-2.07,1.82-4.27,3.54-6.62,5.15-1.87,1.28-3.85,2.44-5.91,3.52-2.6,1.37-5.34,2.54-8.19,3.56-1.58.57-3.2,1.07-4.83,1.54-2.52.71-5.1,1.26-7.72,1.71-1.83.31-3.69.55-5.55.71-1.76.15-3.52.3-5.29.3-.64,0-1.29.08-1.93.08-2.52,0-5.04-.13-7.55-.33-3.02-.24-6-.63-8.94-1.19-3.21-.61-6.3-1.51-9.3-2.58-.83-.29-2.84-.97-2.78-1.12,2.09.21,5.04.77,7.48,1.37,1.47.24,2.92.52,4.39.74,1.08.16,2.16.31,3.27.3.1,0,.19-.02.46-.06-1.1-.28-2.01-.65-2.97-.76-2.14-.25-3.93-.4-5.35-1.13-1.35-.77-2.46-.94-3.89-1.39-.41-.19-.78-.63-.97-.87,1.58.15,2.55.31,5.17,1.23,1.59.56,3.53.41,5.25.47-1.32-.46-3.1-1-4.1-1.08-.51.06-5.16-1.88-5.16-1.88.35-.02,1.42.26,1.72.33,5.22.64,10.68,2.67,12.75,2.01.3.04.62.06,1.06-.03-.75-.26-1.44-.33-2.1-.44-2.36-.4-4.6-1.42-6.95-1.54-2.5-.38-3.25-1.39-4.6-1.83.63-.11,1.33-.07,1.5-.01.59.2,1.26.54,1.78.55,2.01,1.01,6.8,1.16,11.08,2.06,3.06.36,6.14.47,9.23.42,4.32-.06,8.54-.56,12.7-1.47,3.26-.72,6.4-1.68,9.41-2.88.38-.15.75-.32,1.12-.48.18-.08.18-.17.02-.29-1.45-1.04-2.9-2.09-4.35-3.14-1.04-.75-2.1-1.48-3.14-2.23-2.02-1.45-4.03-2.92-6.05-4.37-2.81-2.01-5.63-4.01-8.46-6.02-3.04-2.16-6.09-4.31-9.13-6.46-1.82-1.29-3.62-2.59-5.43-3.88-2.78-1.98-5.56-3.96-8.33-5.94-1.97-1.41-3.92-2.83-5.89-4.23-3.64-2.6-7.29-5.2-10.94-7.79-2.43-1.72-4.87-3.43-7.31-5.15-.47-.33-.48-.35-.97,0-1.65,1.15-3.29,2.32-4.93,3.48-3.69,2.62-7.39,5.23-11.08,7.86-4.45,3.17-8.89,6.36-13.34,9.54-2.82,2.01-5.65,4.01-8.46,6.02-3.92,2.8-7.83,5.6-11.75,8.4-2.26,1.62-4.52,3.24-6.79,4.85-2.2,1.57-4.41,3.15-6.61,4.72-1.91,1.36-3.83,2.72-5.73,4.08-.59.42-.59.45.13.76,1.49.66,3.05,1.21,4.63,1.73,3.82,1.26,7.81,2.05,11.91,2.51,3.39.38,6.79.47,10.2.33,3.6-.14,7.13-.62,10.61-1.36,2.78-.59,9.36-2.87,9.54-2.63-2.9,1.75-11.26,4.12-10.99,4.1,2.96-.25,11.46-2.62,12.25-2.65.08-.02.16-.03.22.03-3.82,1.28-6.32,2.74-8.47,3.33-.27.07-.56.11-.83.33.37.04.64-.11.92-.09,1.32.1,9.49-1.89,9.68-1.97-.07.05-.24.2-.33.25-.89.42-1.78.85-2.69,1.24-2.38,1.01-4.95,1.69-7.52,2.35-1.09.28-2.18.59-3.27.86-.42.11-.83.22-1.28.26.68.07,1.34-.02,1.99-.12,4.25-.63,6.09-.69,10.12-1.89.75-.22,4.23-1.2,5.59-1.57-.62.57-2.54,1.53-3.51,1.88-2.85,1.02-5.74,1.95-8.76,2.64-2.39.55-4.83.94-7.3,1.23-2.47.29-4.95.41-7.44.53-1.92.09-3.81,0-5.71-.09-4.34-.19-8.63-.71-12.83-1.6-4.91-1.04-9.59-2.52-13.98-4.51-3.04-1.38-5.91-2.93-8.52-4.76-3.13-2.19-5.95-4.59-8.36-7.27-2.67-2.97-4.78-6.16-6.38-9.56-1.15-2.45-1.97-4.96-2.55-7.53-.64-2.82-.77-5.66-.72-8.52.05-2.34.48-4.64,1.06-6.93.51-2.01,1.17-3.98,2.06-5.91.86-1.85,1.81-3.67,2.98-5.41,1.26-1.87,2.65-3.69,4.25-5.4,1.83-1.95,3.86-3.76,6.11-5.43,3.46-2.57,7.33-4.71,11.58-6.44,5.3-2.17,10.91-3.65,16.8-4.52,1.74-.26,3.48-.45,5.24-.62,2.7-.26,5.4-.37,8.11-.36,1.61,0,3.21.12,4.82.21,1.93.11,3.84.3,5.74.53,4.63.54,9.13,1.43,13.5,2.73,3.07.91,5.96,2.09,8.73,3.44,1.29.63,2.52,1.34,3.71,2.08.14.09.35.15.2.34-.67-.07-1.12-.15-1.82-.35-7.67-2.51-9.8-2.49-9.54-2.42,2.96.81,5.61,2.07,8.18,3.42.32.22,1.08.86.99.94-6.65-2.91-8.15-2.36-11.49-2.98,2.73.49,9.1,3.69,9.79,4.27.02.08-2.83-.85-3.1-.98-.52-.26-1.55-.79-2.57-1.13-.74-.25-1.48-.49-2.22-.73-.67-.22-3.11-1.01-3.51-1.22-1.14-.23-2.28-.48-3.42-.71-.17-.03-.35-.03-.55.03.29.1.56.2.86.29,2.48.7,4.82,1.62,7.04,2.72.34.17.68.33,1.04.47,1.55.59,3.55,1.89,4.76,2.78-.12.11-5.04-2.15-7.24-2.98-3.32-1.24-6.78-2.17-10.35-2.89-5.33-1.07-10.75-1.58-16.26-1.4-5.49.18-10.81.99-15.97,2.46-3.67,1.04-7.15,2.37-10.38,4.08-3.21,1.7-6.03,3.72-8.55,6-2.27,2.06-4.2,4.29-5.76,6.7-1.94,2.99-3.33,6.11-4.08,9.41-.64,2.84-.9,5.7-.76,8.57.21,4.26,1.24,8.39,3.35,12.35,1.59,2.98,3.67,5.74,6.23,8.28,1.08,1.08,2.28,2.09,3.56,3.03.75.56,1.46,1.15,2.29,1.65.38.23.38.24.72,0,1.6-1.13,3.19-2.27,4.79-3.41,1.76-1.25,3.52-2.49,5.28-3.73.89-.63,1.77-1.27,2.65-1.91,3.25-2.34,6.51-4.69,9.76-7.03,1.63-1.17,3.23-2.37,4.86-3.54,1.86-1.34,3.74-2.67,5.61-4.01,1.41-1.02,2.8-2.05,4.22-3.06,2.27-1.61,4.55-3.21,6.82-4.82,2.01-1.43,4.01-2.87,6.02-4.31,2.5-1.79,5-3.57,7.5-5.35,2.05-1.46,4.07-2.95,6.13-4.4,4.67-3.29,9.25-6.67,13.96-9.93,2.74-1.9,5.54-3.73,8.64-5.26,2.71-1.34,5.54-2.52,8.47-3.57,3.1-1.11,6.3-2,9.57-2.72,2.24-.49,4.52-.88,6.82-1.17,1.82-.23,3.65-.41,5.5-.52,2.22-.14,4.44-.27,6.67-.2,2.01.06,4.01.15,6.01.32,2.24.2,4.46.45,6.67.77,2.27.33,4.49.78,6.7,1.29,3.82.88,7.47,2.07,10.99,3.49,3.43,1.35,6.56,3.98,7.32,4.72.69.59.7,1.14,1.17,1.64-1.83-1.28-6.14-3.86-6.9-3.78-.13.15.14.17.25.23.43.25.84.51,1.22.81.34.26.58.29,1.17.61-.17,0,4.15,2.86,4.13,3.08-.9-.24-1.06-.37-1.85-.57-.61-.47-1.37-.78-2.03-1.21-.2.18,0,.25.09.32.35.28.75.52,1.09.83.1.09.31.19.39.53-.8-.37-1.42-.84-2.11-1.24-.7-.4-1.43-.76-2.2-1.12-.07.2.07.25.15.32,1.16.89,4.27,3.68,4.11,3.57-.25-.19-4.34-2.38-5.95-2.9-1.12-.36-2.16-1-3.25-1.49-.09-.04-.2-.05-.3-.07-.02,0-.06.01-.07.02,0,.03-.02.09,0,.1.22.12.43.25.66.35,2.29.93,4.14,2.28,5.83,3.75.48.42.16.49,1.06,2.01-.22.05-1.03-.68-1.17-.78-.56-.38-.4-.2-.99-.56-2.12-1.31-4.35-2.49-6.71-3.52-2.93-1.28-6.01-2.29-9.21-3.09-2.96-.74-5.99-1.27-9.07-1.63-3.78-.44-7.59-.56-11.4-.37-6.54.32-12.83,1.48-18.82,3.54-3.69,1.27-7.15,2.85-10.37,4.73-2.16,1.26-4.22,2.62-6.27,3.99-.22.15-.23.25-.02.39.7.48,1.4.97,2.09,1.46,1.3.92,2.61,1.85,3.91,2.78,3.54,2.53,7.08,5.06,10.63,7.59,1.95,1.39,3.89,2.79,5.84,4.18,2.64,1.88,5.29,3.75,7.93,5.64,2.71,1.94,5.4,3.91,8.13,5.83,2.2,1.55,4.38,3.11,6.55,4.68,2.52,1.83,5.04,3.65,7.58,5.47,3.01,2.15,6.02,4.3,9.04,6.45,2.66,1.89,5.33,3.78,8,5.66.59.42.48.49,1.21-.01,2.21-1.51,4.25-3.15,6.22-4.85.36-.31.4-.32.87-.06,2.23,1.22,4.45,2.45,6.68,3.68.07.04.13.08.19.12.39.27.41.3.07.59ZM265.94,71c-.97,0-1.93,0-2.9,0h0c-.99,0-1.99,0-2.98,0-.35,0-.46.1-.46.36.01,1.49,0,2.97,0,4.46,0,.25.07.38.44.37,2.01-.01,4.03-.02,6.04-.01.31,0,.42-.08.42-.32,0-1.49,0-2.97,0-4.46,0-.38-.02-.39-.57-.39ZM278.03,71c-.99,0-1.99,0-2.98,0s-1.99,0-2.98,0c-.47,0-.48.01-.48.39,0,1.3,0,2.6,0,3.9,0,.18.07.37.07.55,0,.23.1.33.42.33,1.99,0,3.97-.01,5.96,0,.33,0,.41-.12.41-.34,0-1.51,0-3.02,0-4.52,0-.25-.14-.32-.43-.32ZM266.1,61.79c-2.01,0-4.03.02-6.04.01-.35,0-.46.11-.46.37,0,1.47,0,2.93-.01,4.4,0,.26.12.37.46.36.99-.01,1.99,0,2.98,0h0c.99,0,1.99-.01,2.98,0,.3,0,.5-.03.5-.33-.01-1.49,0-2.97,0-4.46,0-.23-.1-.34-.42-.34ZM278.08,61.79c-2.01,0-4.03.02-6.04.01-.35,0-.46.11-.46.37,0,1.47,0,2.93-.01,4.4,0,.26.12.37.46.36.99-.01,1.99,0,2.98,0h0c.99,0,1.99-.01,2.98,0,.3,0,.5-.03.5-.33-.01-1.49,0-2.97,0-4.46,0-.23-.1-.34-.42-.34Z"/>
      </g>
    </g>
  </g>
</svg>