<?xml version="1.0" encoding="UTF-8"?>
<svg xmlns="http://www.w3.org/2000/svg" version="1.1" xmlns:xlink="http://www.w3.org/1999/xlink" viewBox="0 0 194.9 99.8">
  <defs>
    <style>
      .cls-1 {
        fill: url(#radial-gradient);
      }
    </style>
    <radialGradient id="radial-gradient" cx="110" cy="45.2" fx="25.6" fy="118" r="116.2" gradientTransform="translate(122.5 182.8) rotate(-111.4) scale(1.1 .8) skewX(5.2)" gradientUnits="userSpaceOnUse">
      <stop offset=".1" stop-color="#c29b56"/>
      <stop offset=".6" stop-color="#e3b962"/>
      <stop offset=".8" stop-color="#eed27f"/>
    </radialGradient>
    <image id="image" width="1536" height="1024" xlink:href="ChatGPT Image Jun 26, 2026, 03_16_03 AM.png"/>
  </defs>
  <!-- Generator: Adobe Illustrator 28.6.0, SVG Export Plug-In . SVG Version: 1.2.0 Build 709)  -->
  <g>
    <g id="Layer_1">
      <use transform="translate(-184.3 -131.3) scale(.4)" xlink:href="#image"/>
      <use transform="translate(-184.3 -131.3) scale(.4)" xlink:href="#image"/>
      <path class="cls-1" d="M194.7,80.3c-2.1,2.1-4.3,4.2-6.6,6.1-1.9,1.5-3.9,2.9-5.9,4.1-2.6,1.6-5.3,3-8.2,4.2-1.6.7-3.2,1.3-4.8,1.8-2.5.8-5.1,1.5-7.7,2-1.8.4-3.7.6-5.5.8-1.8.2-3.5.4-5.3.4-.6,0-1.3,0-1.9,0-2.5,0-5-.2-7.5-.4-3-.3-6-.7-8.9-1.4-3.2-.7-6.3-1.8-9.3-3-.8-.3-2.8-1.1-2.8-1.3,2.1.2,5,.9,7.5,1.6,1.5.3,2.9.6,4.4.9,1.1.2,2.2.4,3.3.3,0,0,.2,0,.5,0-1.1-.3-2-.8-3-.9-2.1-.3-3.9-.5-5.3-1.3-1.3-.9-2.5-1.1-3.9-1.6-.4-.2-.8-.7-1-1,1.6.2,2.6.4,5.2,1.4,1.6.7,3.5.5,5.2.5-1.3-.5-3.1-1.2-4.1-1.3-.5,0-5.2-2.2-5.2-2.2.4,0,1.4.3,1.7.4,5.2.7,10.7,3.1,12.7,2.4.3,0,.6,0,1.1,0-.7-.3-1.4-.4-2.1-.5-2.4-.5-4.6-1.7-7-1.8-2.5-.4-3.2-1.6-4.6-2.2.6-.1,1.3,0,1.5,0,.6.2,1.3.6,1.8.6,2,1.2,6.8,1.4,11.1,2.4,3.1.4,6.1.6,9.2.5,4.3,0,8.5-.7,12.7-1.7,3.3-.8,6.4-2,9.4-3.4.4-.2.8-.4,1.1-.6.2,0,.2-.2,0-.3-1.5-1.2-2.9-2.5-4.3-3.7-1-.9-2.1-1.7-3.1-2.6-2-1.7-4-3.4-6.1-5.1-2.8-2.4-5.6-4.7-8.5-7.1-3-2.5-6.1-5.1-9.1-7.6-1.8-1.5-3.6-3-5.4-4.6-2.8-2.3-5.6-4.7-8.3-7-2-1.7-3.9-3.3-5.9-5-3.6-3.1-7.3-6.1-10.9-9.2-2.4-2-4.9-4-7.3-6.1-.5-.4-.5-.4-1,0-1.6,1.4-3.3,2.7-4.9,4.1-3.7,3.1-7.4,6.2-11.1,9.2-4.5,3.7-8.9,7.5-13.3,11.2-2.8,2.4-5.6,4.7-8.5,7.1-3.9,3.3-7.8,6.6-11.7,9.9-2.3,1.9-4.5,3.8-6.8,5.7-2.2,1.9-4.4,3.7-6.6,5.6-1.9,1.6-3.8,3.2-5.7,4.8-.6.5-.6.5.1.9,1.5.8,3.1,1.4,4.6,2,3.8,1.5,7.8,2.4,11.9,3,3.4.4,6.8.5,10.2.4,3.6-.2,7.1-.7,10.6-1.6,2.8-.7,9.4-3.4,9.5-3.1-2.9,2.1-11.3,4.8-11,4.8,3-.3,11.5-3.1,12.2-3.1,0,0,.2,0,.2,0-3.8,1.5-6.3,3.2-8.5,3.9-.3,0-.6.1-.8.4.4,0,.6-.1.9-.1,1.3.1,9.5-2.2,9.7-2.3,0,0-.2.2-.3.3-.9.5-1.8,1-2.7,1.5-2.4,1.2-4.9,2-7.5,2.8-1.1.3-2.2.7-3.3,1-.4.1-.8.3-1.3.3.7,0,1.3,0,2-.1,4.2-.7,6.1-.8,10.1-2.2.7-.3,4.2-1.4,5.6-1.8-.6.7-2.5,1.8-3.5,2.2-2.8,1.2-5.7,2.3-8.8,3.1-2.4.6-4.8,1.1-7.3,1.4-2.5.3-5,.5-7.4.6-1.9.1-3.8,0-5.7-.1-4.3-.2-8.6-.8-12.8-1.9-4.9-1.2-9.6-3-14-5.3-3-1.6-5.9-3.4-8.5-5.6-3.1-2.6-6-5.4-8.4-8.5-2.7-3.5-4.8-7.2-6.4-11.2-1.2-2.9-2-5.8-2.6-8.8C0,54.9,0,51.6,0,48.2c0-2.8.5-5.5,1.1-8.1.5-2.4,1.2-4.7,2.1-6.9.9-2.2,1.8-4.3,3-6.4,1.3-2.2,2.6-4.3,4.3-6.3,1.8-2.3,3.9-4.4,6.1-6.4,3.5-3,7.3-5.5,11.6-7.6,5.3-2.5,10.9-4.3,16.8-5.3,1.7-.3,3.5-.5,5.2-.7C52.8.1,55.5,0,58.2,0c1.6,0,3.2.1,4.8.2,1.9.1,3.8.4,5.7.6,4.6.6,9.1,1.7,13.5,3.2,3.1,1.1,6,2.5,8.7,4,1.3.7,2.5,1.6,3.7,2.4.1.1.4.2.2.4-.7,0-1.1-.2-1.8-.4-7.7-3-9.8-2.9-9.5-2.8,3,1,5.6,2.4,8.2,4,.3.3,1.1,1,1,1.1-6.6-3.4-8.1-2.8-11.5-3.5,2.7.6,9.1,4.3,9.8,5,0,0-2.8-1-3.1-1.2-.5-.3-1.6-.9-2.6-1.3-.7-.3-1.5-.6-2.2-.9-.7-.3-3.1-1.2-3.5-1.4-1.1-.3-2.3-.6-3.4-.8-.2,0-.3,0-.5,0,.3.1.6.2.9.3,2.5.8,4.8,1.9,7,3.2.3.2.7.4,1,.6,1.5.7,3.5,2.2,4.8,3.3-.1.1-5-2.5-7.2-3.5-3.3-1.5-6.8-2.6-10.4-3.4-5.3-1.3-10.8-1.9-16.3-1.6-5.5.2-10.8,1.2-16,2.9-3.7,1.2-7.1,2.8-10.4,4.8-3.2,2-6,4.4-8.5,7.1-2.3,2.4-4.2,5-5.8,7.9-1.9,3.5-3.3,7.2-4.1,11.1-.6,3.3-.9,6.7-.8,10.1.2,5,1.2,9.9,3.3,14.5,1.6,3.5,3.7,6.7,6.2,9.7,1.1,1.3,2.3,2.5,3.6,3.6.8.7,1.5,1.4,2.3,1.9.4.3.4.3.7,0,1.6-1.3,3.2-2.7,4.8-4,1.8-1.5,3.5-2.9,5.3-4.4.9-.7,1.8-1.5,2.6-2.2,3.3-2.8,6.5-5.5,9.8-8.3,1.6-1.4,3.2-2.8,4.9-4.2,1.9-1.6,3.7-3.1,5.6-4.7,1.4-1.2,2.8-2.4,4.2-3.6,2.3-1.9,4.6-3.8,6.8-5.7,2-1.7,4-3.4,6-5.1,2.5-2.1,5-4.2,7.5-6.3,2-1.7,4.1-3.5,6.1-5.2,4.7-3.9,9.3-7.8,14-11.7,2.7-2.2,5.5-4.4,8.6-6.2,2.7-1.6,5.5-3,8.5-4.2,3.1-1.3,6.3-2.4,9.6-3.2,2.2-.6,4.5-1,6.8-1.4,1.8-.3,3.7-.5,5.5-.6,2.2-.2,4.4-.3,6.7-.2,2,0,4,.2,6,.4,2.2.2,4.5.5,6.7.9,2.3.4,4.5.9,6.7,1.5,3.8,1,7.5,2.4,11,4.1,3.4,1.6,6.6,4.7,7.3,5.5.7.7.7,1.3,1.2,1.9-1.8-1.5-6.1-4.5-6.9-4.4-.1.2.1.2.2.3.4.3.8.6,1.2,1,.3.3.6.3,1.2.7-.2,0,4.2,3.4,4.1,3.6-.9-.3-1.1-.4-1.8-.7-.6-.6-1.4-.9-2-1.4-.2.2,0,.3,0,.4.4.3.7.6,1.1,1,0,.1.3.2.4.6-.8-.4-1.4-1-2.1-1.5-.7-.5-1.4-.9-2.2-1.3,0,.2,0,.3.2.4,1.2,1,4.3,4.3,4.1,4.2-.3-.2-4.3-2.8-6-3.4-1.1-.4-2.2-1.2-3.2-1.8,0,0-.2,0-.3,0,0,0,0,0,0,0,0,0,0,.1,0,.1.2.1.4.3.7.4,2.3,1.1,4.1,2.7,5.8,4.4.5.5.2.6,1.1,2.4-.2,0-1-.8-1.2-.9-.6-.5-.4-.2-1-.7-2.1-1.5-4.3-2.9-6.7-4.1-2.9-1.5-6-2.7-9.2-3.6-3-.9-6-1.5-9.1-1.9-3.8-.5-7.6-.7-11.4-.4-6.5.4-12.8,1.7-18.8,4.2-3.7,1.5-7.1,3.3-10.4,5.6-2.2,1.5-4.2,3.1-6.3,4.7-.2.2-.2.3,0,.5.7.6,1.4,1.1,2.1,1.7,1.3,1.1,2.6,2.2,3.9,3.3,3.5,3,7.1,6,10.6,8.9,1.9,1.6,3.9,3.3,5.8,4.9,2.6,2.2,5.3,4.4,7.9,6.6,2.7,2.3,5.4,4.6,8.1,6.9,2.2,1.8,4.4,3.7,6.6,5.5,2.5,2.2,5,4.3,7.6,6.4,3,2.5,6,5.1,9,7.6,2.7,2.2,5.3,4.4,8,6.7.6.5.5.6,1.2,0,2.2-1.8,4.3-3.7,6.2-5.7.4-.4.4-.4.9,0,2.2,1.4,4.5,2.9,6.7,4.3,0,0,.1,0,.2.1.4.3.4.4,0,.7ZM97.9,66.1c-1.3,0-2.6,0-3.9,0h0c-1.3,0-2.7,0-4,0-.5,0-.6.2-.6.6,0,2.3,0,4.7,0,7,0,.4,0,.6.6.6,2.7,0,5.4,0,8.1,0,.4,0,.6-.1.6-.5,0-2.3,0-4.7,0-7,0-.6,0-.6-.8-.6ZM114.1,66.1c-1.3,0-2.7,0-4,0s-2.7,0-4,0c-.6,0-.6,0-.6.6,0,2,0,4.1,0,6.1,0,.3,0,.6,0,.9,0,.4.1.5.6.5,2.7,0,5.3,0,8,0,.4,0,.5-.2.5-.5,0-2.4,0-4.7,0-7.1,0-.4-.2-.5-.6-.5ZM98.1,51.6c-2.7,0-5.4,0-8.1,0-.5,0-.6.2-.6.6,0,2.3,0,4.6,0,6.9,0,.4.2.6.6.6,1.3,0,2.7,0,4,0h0c1.3,0,2.7,0,4,0,.4,0,.7,0,.7-.5,0-2.3,0-4.7,0-7,0-.4-.1-.5-.6-.5ZM114.1,51.6c-2.7,0-5.4,0-8.1,0-.5,0-.6.2-.6.6,0,2.3,0,4.6,0,6.9,0,.4.2.6.6.6,1.3,0,2.7,0,4,0h0c1.3,0,2.7,0,4,0,.4,0,.7,0,.7-.5,0-2.3,0-4.7,0-7,0-.4-.1-.5-.6-.5Z"/>
    </g>
  </g>
</svg>